<svg width="722" height="392" viewBox="0 0 722 392" fill="none" xmlns="http://www.w3.org/2000/svg">
<path d="M32.3034 52.8148L52.8796 43.1238L632.442 39.8934L683.883 43.1238L701.029 62.5058L721.606 94.8092L701.029 233.714L694.171 282.169L663.306 304.781L632.442 314.472L629.013 375.849L539.849 314.472L478.121 311.242H337.517H231.206L131.755 314.472L52.8796 308.012L25.4447 295.09L8.29785 275.708L11.7273 233.714L11.7275 155.056L25.4447 109.832L25.4447 87.2191L32.3034 52.8148Z" fill="white"/>
<path d="M645.672 25.8425C689.689 25.8426 724.056 63.8966 719.585 107.686L704.735 253.14C701.19 287.857 673.798 314.858 639.817 318.558V382.308C639.817 386.046 637.666 389.45 634.291 391.057C630.916 392.664 626.919 392.188 624.017 389.832L537.852 319.868C537.515 319.594 537.203 319.301 536.912 318.994H74.3039C30.5133 318.994 -3.77924 281.312 0.335152 237.716L13.9797 93.1589C17.5814 55 49.62 25.8426 87.9484 25.8425H645.672ZM87.9484 45.2253C59.6187 45.2255 35.9377 66.7758 33.2756 94.9802L19.632 239.537C16.5911 271.76 41.937 299.612 74.3039 299.612H540.581C543.899 299.612 546.827 301.28 548.573 303.823C549.092 304.105 549.594 304.436 550.069 304.821L620.435 361.956V309.302C620.435 303.95 624.773 299.611 630.125 299.611C630.412 299.611 630.695 299.626 630.975 299.65C631.252 299.626 631.532 299.612 631.816 299.612C659.472 299.612 682.644 278.685 685.453 251.172L700.303 105.718C703.607 73.3514 678.206 45.2254 645.672 45.2253H87.9484Z" fill="#2A9D8F"/>
<path d="M124.688 234.357C116.031 234.357 108.859 232.806 103.174 229.705C97.4886 226.475 93.2891 222.34 90.5757 217.301C87.8622 212.132 86.5055 206.576 86.5055 200.632C86.5055 195.335 87.5392 190.101 89.6066 184.933C91.674 179.764 94.7105 175.048 98.7161 170.784C102.851 166.52 107.826 163.161 113.64 160.706C108.342 157.346 104.337 153.34 101.623 148.689C99.0391 143.908 97.747 138.933 97.747 133.765C97.747 127.046 99.9436 120.52 104.337 114.189C108.73 107.858 115.126 102.624 123.525 98.4897C131.924 94.3549 142.002 92.2874 153.761 92.2874C161.901 92.2874 168.362 93.3211 173.143 95.3885C178.053 97.3267 181.606 99.911 183.803 103.141C185.999 106.242 187.098 109.602 187.098 113.22C187.098 117.355 185.805 121.489 183.221 125.624C180.637 129.63 176.89 132.925 171.98 135.509C167.199 138.093 161.32 139.385 154.342 139.385C156.41 133.312 157.443 128.273 157.443 124.268C157.443 120.262 156.603 117.355 154.924 115.546C153.244 113.737 151.176 112.832 148.721 112.832C146.137 112.832 143.359 113.801 140.387 115.74C137.544 117.678 135.154 120.391 133.216 123.88C131.278 127.369 130.309 131.439 130.309 136.091C130.309 138.546 130.696 141.324 131.471 144.425C132.247 147.397 133.474 150.369 135.154 153.34C137.997 151.531 140.581 150.239 142.907 149.464C145.362 148.56 147.558 148.107 149.497 148.107C153.502 148.107 156.41 149.529 158.218 152.371C160.027 155.085 160.932 158.186 160.932 161.675C160.932 165.809 159.64 169.75 157.056 173.498C154.601 177.245 150.918 179.118 146.008 179.118C141.485 179.118 136.188 176.986 130.115 172.722C123.008 177.762 119.455 183.705 119.455 190.554C119.455 195.851 121.07 199.857 124.3 202.57C127.66 205.284 131.924 206.641 137.092 206.641C143.682 206.641 151.047 204.379 159.188 199.857C167.328 195.205 174.564 188.292 180.895 179.118L182.446 180.087C182.187 189.132 180.314 197.079 176.825 203.927C173.466 210.646 169.008 216.267 163.452 220.789C158.025 225.312 151.952 228.736 145.233 231.062C138.514 233.258 131.665 234.357 124.688 234.357ZM212.226 233.581C207.445 233.581 203.116 231.708 199.24 227.961C195.364 224.084 193.425 218.722 193.425 211.874C193.425 208.514 193.878 204.702 194.782 200.438C195.687 196.174 196.656 191.846 197.689 187.453C198.852 183.059 199.886 178.925 200.791 175.048C201.695 171.172 202.147 168.006 202.147 165.551C202.147 162.967 201.63 160.964 200.597 159.543C199.563 157.992 198.206 157.217 196.527 157.217C194.33 157.217 191.939 158.509 189.355 161.093L188.192 160.318C188.063 158.25 188.515 155.795 189.549 152.953C190.583 150.11 192.133 147.397 194.201 144.812C196.397 142.099 199.175 139.838 202.535 138.029C205.894 136.22 209.9 135.315 214.552 135.315C221.4 135.315 226.439 137.318 229.67 141.324C233.029 145.2 234.709 149.981 234.709 155.666C234.709 157.734 234.515 159.736 234.127 161.675C236.841 157.669 240.2 153.663 244.206 149.658C248.212 145.523 252.605 142.099 257.386 139.385C262.296 136.672 267.335 135.315 272.504 135.315C278.577 135.315 282.711 137.253 284.908 141.13C287.105 145.006 288.203 149.852 288.203 155.666C288.203 161.093 287.621 166.908 286.458 173.11C285.296 179.312 284.133 185.321 282.97 191.135C281.807 196.82 281.225 201.601 281.225 205.478C281.225 210.646 282.711 213.23 285.683 213.23C287.234 213.23 288.591 212.778 289.753 211.874C290.916 210.84 291.692 209.871 292.079 208.966L293.436 209.548C293.436 214.329 292.079 218.528 289.366 222.146C286.782 225.764 283.487 228.607 279.481 230.674C275.475 232.612 271.405 233.581 267.27 233.581C262.231 233.581 257.773 231.837 253.897 228.348C250.021 224.86 248.082 219.174 248.082 211.292C248.082 206.641 248.664 201.601 249.827 196.174C251.119 190.747 252.346 185.514 253.509 180.475C254.672 175.436 255.254 171.301 255.254 168.071C255.254 166.132 254.866 164.647 254.091 163.613C253.445 162.45 252.217 161.868 250.408 161.868C247.436 161.868 244.141 163.225 240.523 165.939C237.035 168.652 233.998 172.27 231.414 176.793C228.959 181.315 227.731 186.29 227.731 191.717C227.731 195.205 228.119 198.565 228.894 201.795C229.799 205.025 230.251 208.514 230.251 212.261C230.251 219.239 228.442 224.537 224.824 228.155C221.206 231.772 217.007 233.581 212.226 233.581ZM350.402 271.764C344.071 271.764 338.838 269.89 334.703 266.143C330.568 262.396 328.501 257.098 328.501 250.25C328.501 242.885 331.085 234.228 336.253 224.278C335.349 224.537 334.444 224.73 333.54 224.86C332.635 224.989 331.731 225.053 330.826 225.053C323.332 225.053 317.001 221.823 311.832 215.362C306.793 208.773 304.273 199.663 304.273 188.034C304.273 177.568 306.276 168.329 310.282 160.318C314.416 152.307 319.649 146.04 325.981 141.517C332.312 136.995 338.902 134.734 345.75 134.734C350.531 134.734 354.86 135.961 358.736 138.416C362.613 140.742 365.778 144.554 368.233 149.852C368.363 148.56 368.427 147.397 368.427 146.363C368.427 145.329 368.427 144.36 368.427 143.456C368.427 141.259 370.107 139.45 373.467 138.029C376.826 136.607 380.573 135.897 384.708 135.897C388.455 135.897 391.944 136.607 395.174 138.029C398.405 139.45 400.537 141.84 401.57 145.2L401.958 146.363C400.795 147.397 399.761 150.756 398.857 156.442C398.082 162.127 397.112 170.009 395.95 180.087C395.174 186.419 394.205 193.655 393.042 201.795C391.879 209.806 390.264 217.947 388.197 226.216C386.259 234.357 383.674 241.851 380.444 248.699C377.214 255.677 373.143 261.233 368.233 265.368C363.323 269.632 357.38 271.764 350.402 271.764ZM344.006 202.764C347.753 202.764 351.888 199.728 356.41 193.655C361.062 187.453 364.745 178.601 367.458 167.102C365.132 162.062 362.742 158.509 360.287 156.442C357.961 154.245 355.571 153.147 353.116 153.147C349.885 153.147 346.849 154.762 344.006 157.992C341.163 161.222 338.838 165.357 337.029 170.396C335.349 175.307 334.509 180.41 334.509 185.708C334.509 191.135 335.413 195.335 337.222 198.306C339.031 201.278 341.293 202.764 344.006 202.764ZM341.68 249.475C346.073 249.475 350.531 245.146 355.054 236.489C359.705 227.961 362.936 215.879 364.745 200.245C354.925 213.553 348.076 223.826 344.2 231.062C340.453 238.169 338.579 243.208 338.579 246.18C338.579 248.376 339.613 249.475 341.68 249.475ZM432.53 233.775C429.041 233.775 425.617 232.935 422.257 231.256C419.027 229.447 416.378 226.604 414.311 222.728C412.243 218.851 411.21 213.877 411.21 207.804C411.21 202.377 411.92 196.045 413.342 188.809C414.892 181.444 416.572 173.821 418.381 165.939C420.319 158.057 421.999 150.369 423.42 142.874C424.842 135.38 425.488 128.725 425.359 122.911C425.359 117.355 424.712 113.414 423.42 111.088L423.227 110.506C424.648 106.372 427.168 103.141 430.785 100.815C434.403 98.4896 438.215 97.3267 442.221 97.3267C446.743 97.3267 450.749 99.0711 454.238 102.56C457.856 105.919 459.664 111.605 459.664 119.616C459.664 123.88 459.148 128.984 458.114 134.928C457.08 140.742 455.853 147.009 454.431 153.728C453.01 160.318 451.524 166.843 449.974 173.304C448.552 179.764 447.325 185.708 446.291 191.135C445.257 196.562 444.74 201.02 444.74 204.509C444.74 208.127 445.257 210.646 446.291 212.068C447.325 213.36 448.488 214.006 449.78 214.006C451.201 214.006 452.558 213.489 453.85 212.455C455.142 211.292 455.982 210.259 456.37 209.354L457.92 209.742C457.791 214.393 456.434 218.528 453.85 222.146C451.395 225.764 448.229 228.607 444.353 230.674C440.606 232.742 436.665 233.775 432.53 233.775ZM504.602 129.307C499.433 129.307 495.169 127.756 491.81 124.655C488.579 121.425 486.964 117.419 486.964 112.638C486.964 107.47 488.902 103.012 492.779 99.2649C496.655 95.5178 501.371 93.6442 506.928 93.6442C512.096 93.6442 516.295 95.2593 519.526 98.4897C522.885 101.72 524.565 105.726 524.565 110.506C524.565 115.675 522.627 120.133 518.75 123.88C514.874 127.498 510.158 129.307 504.602 129.307ZM491.034 233.775C485.995 233.775 481.473 232.031 477.467 228.542C473.461 224.924 471.459 219.174 471.459 211.292C471.459 206.77 472.04 202.57 473.203 198.694C474.495 194.688 475.917 190.812 477.467 187.065C479.147 183.318 480.568 179.7 481.731 176.211C483.023 172.593 483.669 169.04 483.669 165.551C483.669 162.45 483.152 160.253 482.119 158.961C481.085 157.54 479.857 156.829 478.436 156.829C476.24 156.829 474.108 158.25 472.04 161.093L470.683 160.318C471.2 155.149 472.815 150.756 475.529 147.138C478.372 143.391 481.796 140.484 485.801 138.416C489.936 136.349 494.006 135.315 498.012 135.315C502.922 135.315 507.186 136.93 510.804 140.161C514.422 143.262 516.231 148.366 516.231 155.472C516.231 159.736 515.585 164.259 514.293 169.04C513.13 173.691 511.708 178.343 510.029 182.995C508.478 187.646 507.057 191.975 505.765 195.981C504.602 199.986 504.02 203.41 504.02 206.253C504.02 208.708 504.472 210.452 505.377 211.486C506.411 212.52 507.509 213.037 508.672 213.037C509.835 213.037 510.933 212.714 511.967 212.068C513.13 211.292 513.97 210.452 514.486 209.548L515.843 209.936C515.843 214.716 514.551 218.916 511.967 222.534C509.512 226.023 506.411 228.801 502.664 230.868C498.916 232.806 495.04 233.775 491.034 233.775ZM572.499 234.357C562.808 234.357 554.797 232.419 548.465 228.542C542.134 224.666 537.418 219.562 534.317 213.23C531.345 206.77 529.859 199.922 529.859 192.686C529.859 185.837 531.086 178.989 533.541 172.141C536.126 165.293 539.808 159.09 544.589 153.534C549.499 147.849 555.443 143.326 562.42 139.967C569.398 136.478 577.409 134.734 586.454 134.734C596.145 134.734 604.091 136.737 610.294 140.742C616.625 144.619 621.277 149.787 624.249 156.248C627.35 162.708 628.9 169.621 628.9 176.986C628.9 183.705 627.673 190.489 625.218 197.337C622.763 204.056 619.08 210.259 614.17 215.944C609.389 221.5 603.51 225.958 596.532 229.317C589.555 232.677 581.544 234.357 572.499 234.357ZM577.732 217.882C581.221 217.882 584.128 216.073 586.454 212.455C588.78 208.837 590.524 204.25 591.687 198.694C592.85 193.009 593.431 187.259 593.431 181.444C593.431 176.276 592.915 171.43 591.881 166.908C590.976 162.256 589.555 158.509 587.617 155.666C585.679 152.694 583.159 151.208 580.058 151.208C576.698 151.208 573.791 153.017 571.336 156.635C569.01 160.253 567.266 164.84 566.103 170.396C564.94 175.953 564.359 181.703 564.359 187.646C564.359 192.815 564.811 197.725 565.715 202.377C566.749 206.899 568.235 210.646 570.173 213.618C572.111 216.461 574.631 217.882 577.732 217.882Z" fill="#2A9D8F"/>
</svg>
